<?xml version="1.0" encoding="UTF-8"?>
<svg width="269px" height="61px" viewBox="0 0 269 61" version="1.1" xmlns="http://www.w3.org/2000/svg" xmlns:xlink="http://www.w3.org/1999/xlink">
    <!-- Generator: Sketch 52.1 (67048) - http://www.bohemiancoding.com/sketch -->
    <title>Group 19</title>
    <desc>Created with Sketch.</desc>
    <defs>
        <polygon id="path-1" points="0.02 0.922 60 0.922 60 60.922 0.02 60.922"></polygon>
    </defs>
    <g id="Symbols" stroke="none" stroke-width="1" fill="none" fill-rule="evenodd">
        <g id="logo/landscape_w">
            <g id="Group-19">
                <polygon id="Fill-1" fill="#FFFFFF" points="96.1484 15.9219 96.5764 16.1359 111.5764 35.6359 111.5764 16.1359 111.7914 15.9219 117.3624 15.9219 117.5774 16.1359 117.5774 45.7069 117.3624 45.9219 111.5764 45.9219 111.1474 45.7069 96.1484 26.2069 96.1484 45.7069 95.9334 45.9219 90.3614 45.9219 90.1474 45.7069 90.1474 16.1359 90.3614 15.9219"></polygon>
                <polygon id="Fill-2" fill="#FFFFFF" points="146.9326 15.9219 147.1466 16.1359 147.1466 21.7079 146.9326 21.9209 132.5756 21.9209 132.5756 27.2789 143.0756 27.2789 143.2896 27.4929 143.2896 33.0649 143.0756 33.2789 132.5756 33.2789 132.5756 39.9219 147.3616 39.9219 147.5766 40.1369 147.5766 45.7069 147.3616 45.9219 126.7896 45.9219 126.5756 45.7069 126.5756 16.1359 126.7896 15.9219"></polygon>
                <path d="M163.4316,33.707 L170.2886,33.707 L166.8596,23.637 L163.4316,33.707 Z M169.8596,15.922 L170.0746,16.136 L181.4316,45.707 L181.2176,45.922 L174.5756,45.922 L174.3606,45.707 L172.2176,39.707 L161.5026,39.707 L159.3606,45.707 L159.1456,45.922 L152.5026,45.922 L152.2876,45.707 L163.6466,16.136 L163.8606,15.922 L169.8596,15.922 Z" id="Fill-3" fill="#FFFFFF"></path>
                <g id="Group-10" transform="translate(187.000000, 15.000000)" fill="#FFFFFF">
                    <path d="M6.4307,12.9219 L8.5737,12.9219 C10.7157,12.9219 12.2167,12.0649 12.2167,9.9209 C12.2167,7.7789 10.7157,6.9209 8.5737,6.9209 L6.4307,6.9209 L6.4307,12.9219 Z M8.5737,0.9219 C15.0017,0.9219 18.8597,4.9929 18.8597,9.9209 C18.8597,13.3509 17.1447,15.7079 14.5737,16.9929 L24.8597,30.7069 L24.6447,30.9219 L17.7867,30.9219 L17.5737,30.7069 L8.5737,18.9219 L6.4307,18.9219 L6.4307,30.7069 L6.2157,30.9219 L0.6447,30.9219 L0.4307,30.7069 L0.4307,1.1359 L0.6447,0.9219 L8.5737,0.9219 Z" id="Fill-4"></path>
                    <path d="M36.8584,24.9219 L40.2874,24.9219 C42.4294,24.9219 43.9304,24.0649 43.9304,21.7069 C43.9304,19.3509 42.4294,18.4929 40.2874,18.4929 L36.8584,18.4929 L36.8584,24.9219 Z M36.8584,12.4929 L39.0024,12.4929 C41.3584,12.4929 42.4294,11.4219 42.4294,9.7079 C42.4294,7.9929 41.3584,6.9209 39.0024,6.9209 L36.8584,6.9209 L36.8584,12.4929 Z M39.0024,0.9219 C44.5734,0.9219 49.0724,3.9219 49.0724,9.0649 C49.0724,11.6369 47.7874,13.5649 46.0724,14.4219 C48.6444,15.4929 50.5734,18.4929 50.5734,21.7069 C50.5734,27.7069 46.2874,30.9219 40.7154,30.9219 L31.0734,30.9219 L30.8584,30.7069 L30.8584,1.1359 L31.0734,0.9219 L39.0024,0.9219 Z" id="Fill-6"></path>
                    <polygon id="Fill-8" points="60.8574 0.9219 61.0724 1.1359 67.9294 11.2069 74.7864 1.1359 75.0014 0.9219 81.0014 0.9219 81.2144 1.1359 70.9294 17.4219 70.9294 30.7069 70.7144 30.9219 65.1434 30.9219 64.9294 30.7069 64.9294 17.4219 54.6434 1.1359 54.8574 0.9219"></polygon>
                </g>
                <g id="Group-18">
                    <mask id="mask-2" fill="white">
                        <use xlink:href="#path-1"></use>
                    </mask>
                    <g id="Clip-12"></g>
                    <polygon id="Fill-11" fill="#0089BB" mask="url(#mask-2)" points="0.02 44.922 12.036 44.922 12.036 16.922 0.02 16.922"></polygon>
                    <polygon id="Fill-13" fill="#009EA5" mask="url(#mask-2)" points="48.083 44.922 60.099 44.922 60.099 0.922 48.083 0.922"></polygon>
                    <polygon id="Fill-14" fill="#EDE700" mask="url(#mask-2)" points="41.2002 44.9219 16.0002 44.9219 16.0002 19.7219"></polygon>
                    <polygon id="Fill-15" fill="#E3007E" mask="url(#mask-2)" points="18.7998 16.9219 43.9998 16.9219 43.9998 42.1219"></polygon>
                    <polygon id="Fill-16" fill="#C8C4BE" mask="url(#mask-2)" points="0.021 12.937 44 12.937 44 0.921 0.021 0.921"></polygon>
                    <polygon id="Fill-17" fill="#D74719" mask="url(#mask-2)" points="0.021 61 60.099 61 60.099 48.922 0.021 48.922"></polygon>
                </g>
            </g>
        </g>
    </g>
</svg>