<?xml version="1.0" encoding="UTF-8"?>
<svg width="151px" height="200px" viewBox="0 0 151 200" version="1.1" xmlns="http://www.w3.org/2000/svg" xmlns:xlink="http://www.w3.org/1999/xlink">
    <!-- Generator: Sketch 52.1 (67048) - http://www.bohemiancoding.com/sketch -->
    <title>Group 19</title>
    <desc>Created with Sketch.</desc>
    <defs>
        <polygon id="path-1" points="0.051 0 150 0 150 150 0.051 150"></polygon>
    </defs>
    <g id="Symbols" stroke="none" stroke-width="1" fill="none" fill-rule="evenodd">
        <g id="logo/square_w">
            <g id="Group-19">
                <polygon id="Fill-1" fill="#FFFFFF" points="5.0898 174.5518 5.4528 174.7338 18.1768 191.2748 18.1768 174.7338 18.3598 174.5518 23.0848 174.5518 23.2668 174.7338 23.2668 199.8188 23.0848 199.9998 18.1768 199.9998 17.8138 199.8188 5.0898 183.2768 5.0898 199.8188 4.9078 199.9998 0.1808 199.9998 -0.0002 199.8188 -0.0002 174.7338 0.1808 174.5518"></polygon>
                <polygon id="Fill-2" fill="#FFFFFF" points="48.1685 174.5518 48.3505 174.7338 48.3505 179.4598 48.1685 179.6408 35.9905 179.6408 35.9905 184.1858 44.8965 184.1858 45.0785 184.3668 45.0785 189.0938 44.8965 189.2758 35.9905 189.2758 35.9905 194.9098 48.5325 194.9098 48.7145 195.0918 48.7145 199.8188 48.5325 199.9998 31.0825 199.9998 30.9005 199.8188 30.9005 174.7338 31.0825 174.5518"></polygon>
                <path d="M62.1646,189.6387 L67.9806,189.6387 L65.0726,181.0957 L62.1646,189.6387 Z M67.6176,174.5517 L67.7996,174.7337 L77.4336,199.8187 L77.2516,199.9997 L71.6166,199.9997 L71.4356,199.8187 L69.6176,194.7287 L60.5286,194.7287 L58.7106,199.8187 L58.5286,199.9997 L52.8936,199.9997 L52.7116,199.8187 L62.3466,174.7337 L62.5286,174.5517 L67.6176,174.5517 Z" id="Fill-3" fill="#FFFFFF"></path>
                <g id="Group-10" transform="translate(82.000000, 174.000000)" fill="#FFFFFF">
                    <path d="M5.6118,10.7305 L7.4288,10.7305 C9.2468,10.7305 10.5198,10.0035 10.5198,8.1855 C10.5198,6.3695 9.2468,5.6405 7.4288,5.6405 L5.6118,5.6405 L5.6118,10.7305 Z M7.4288,0.5515 C12.8828,0.5515 16.1538,4.0045 16.1538,8.1855 C16.1538,11.0945 14.6998,13.0945 12.5188,14.1845 L21.2438,25.8185 L21.0618,26.0005 L15.2458,26.0005 L15.0638,25.8185 L7.4288,15.8205 L5.6118,15.8205 L5.6118,25.8185 L5.4298,26.0005 L0.7028,26.0005 L0.5218,25.8185 L0.5218,0.7335 L0.7028,0.5515 L7.4288,0.5515 Z" id="Fill-4"></path>
                    <path d="M31.4229,20.9102 L34.3309,20.9102 C36.1489,20.9102 37.4219,20.1832 37.4219,18.1832 C37.4219,16.1842 36.1489,15.4572 34.3309,15.4572 L31.4229,15.4572 L31.4229,20.9102 Z M31.4229,10.3672 L33.2409,10.3672 C35.2399,10.3672 36.1489,9.4592 36.1489,8.0052 C36.1489,6.5502 35.2399,5.6402 33.2409,5.6402 L31.4229,5.6402 L31.4229,10.3672 Z M33.2409,0.5522 C37.9669,0.5522 41.7839,3.0972 41.7839,7.4592 C41.7839,9.6402 40.6939,11.2762 39.2389,12.0042 C41.4209,12.9122 43.0569,15.4572 43.0569,18.1832 C43.0569,23.2732 39.4209,26.0002 34.6949,26.0002 L26.5149,26.0002 L26.3329,25.8182 L26.3329,0.7332 L26.5149,0.5522 L33.2409,0.5522 Z" id="Fill-6"></path>
                    <polygon id="Fill-8" points="51.7803 0.5518 51.9623 0.7338 57.7793 9.2768 63.5953 0.7338 63.7783 0.5518 68.8673 0.5518 69.0493 0.7338 60.3243 14.5488 60.3243 25.8188 60.1423 25.9998 55.4163 25.9998 55.2343 25.8188 55.2343 14.5488 46.5093 0.7338 46.6903 0.5518"></polygon>
                </g>
                <g id="Group-18">
                    <mask id="mask-2" fill="white">
                        <use xlink:href="#path-1"></use>
                    </mask>
                    <g id="Clip-12"></g>
                    <polygon id="Fill-11" fill="#0089BB" mask="url(#mask-2)" points="0.051 110 30.09 110 30.09 40 0.051 40"></polygon>
                    <polygon id="Fill-13" fill="#009EA5" mask="url(#mask-2)" points="120.208 110 150.247 110 150.247 0 120.208 0"></polygon>
                    <polygon id="Fill-14" fill="#EDE700" mask="url(#mask-2)" points="103 110 40 110 40 47"></polygon>
                    <polygon id="Fill-15" fill="#E3007E" mask="url(#mask-2)" points="47 40 110 40 110 103"></polygon>
                    <polygon id="Fill-16" fill="#C8C4BE" mask="url(#mask-2)" points="0.051 30.039 110 30.039 110 0 0.051 0"></polygon>
                    <polygon id="Fill-17" fill="#D74719" mask="url(#mask-2)" points="0.051 150.195 150.246 150.195 150.246 120 0.051 120"></polygon>
                </g>
            </g>
        </g>
    </g>
</svg>