<?xml version="1.0" encoding="UTF-8"?>
<svg width="109px" height="40px" viewBox="0 0 109 40" version="1.1" xmlns="http://www.w3.org/2000/svg" xmlns:xlink="http://www.w3.org/1999/xlink">
    <!-- Generator: Sketch 52.1 (67048) - http://www.bohemiancoding.com/sketch -->
    <title>Download_on_the_App_Store_Badge_JP_blk_100317</title>
    <desc>Created with Sketch.</desc>
    <defs>
        <polygon id="path-1" points="0 0.04 108.851 0.04 108.851 40 0 40"></polygon>
    </defs>
    <g id="app_LP" stroke="none" stroke-width="1" fill="none" fill-rule="evenodd">
        <g transform="translate(-59.000000, -2652.000000)" id="btn">
            <g transform="translate(59.000000, 2642.000000)">
                <g id="Download_on_the_App_Store_Badge_JP_blk_100317" transform="translate(0.000000, 10.000000)">
                    <g id="Group-3">
                        <mask id="mask-2" fill="white">
                            <use xlink:href="#path-1"></use>
                        </mask>
                        <g id="Clip-2"></g>
                        <path d="M99.322,0 L9.535,0 C9.168,0 8.806,0 8.44,0.002 C8.134,0.004 7.83,0.01 7.521,0.015 C6.855,0.031 6.182,0.072 5.517,0.191 C4.848,0.309 4.226,0.509 3.616,0.818 C3.018,1.125 2.471,1.523 1.998,1.997 C1.519,2.471 1.123,3.02 0.819,3.618 C0.508,4.227 0.311,4.852 0.194,5.521 C0.074,6.184 0.032,6.854 0.015,7.523 C0.006,7.83 0.005,8.138 0,8.444 C0,8.807 0,9.17 0,9.536 L0,30.465 C0,30.834 0,31.195 0,31.559 C0.005,31.869 0.006,32.17 0.015,32.48 C0.032,33.15 0.074,33.82 0.194,34.482 C0.311,35.152 0.508,35.78 0.819,36.387 C1.123,36.982 1.519,37.531 1.998,38.001 C2.471,38.479 3.018,38.876 3.616,39.18 C4.226,39.492 4.848,39.69 5.517,39.811 C6.182,39.93 6.855,39.969 7.521,39.987 C7.83,39.994 8.134,39.998 8.44,39.998 C8.806,40 9.168,40 9.535,40 L99.322,40 C99.682,40 100.046,40 100.406,39.998 C100.711,39.998 101.024,39.994 101.329,39.987 C101.999,39.969 102.67,39.93 103.329,39.811 C103.999,39.69 104.621,39.492 105.237,39.18 C105.834,38.876 106.38,38.479 106.854,38.001 C107.33,37.531 107.726,36.982 108.035,36.387 C108.341,35.78 108.542,35.152 108.654,34.482 C108.778,33.82 108.816,33.15 108.84,32.48 C108.843,32.17 108.843,31.869 108.843,31.559 C108.851,31.195 108.851,30.834 108.851,30.465 L108.851,9.536 C108.851,9.17 108.851,8.807 108.843,8.444 C108.843,8.138 108.843,7.83 108.84,7.523 C108.816,6.854 108.778,6.184 108.654,5.521 C108.542,4.852 108.341,4.227 108.035,3.618 C107.726,3.02 107.33,2.471 106.854,1.997 C106.38,1.523 105.834,1.125 105.237,0.818 C104.621,0.509 103.999,0.309 103.329,0.191 C102.67,0.072 101.999,0.031 101.329,0.015 C101.024,0.01 100.711,0.004 100.406,0.002 C100.046,0 99.682,0 99.322,0" id="Fill-1" fill="#A9AAA9" mask="url(#mask-2)"></path>
                    </g>
                    <path d="M8.445,39.125 C8.14,39.125 7.843,39.121 7.541,39.114 C6.981,39.099 6.318,39.067 5.671,38.951 C5.061,38.841 4.519,38.661 4.015,38.403 C3.493,38.139 3.024,37.797 2.618,37.387 C2.204,36.98 1.863,36.514 1.597,35.99 C1.338,35.485 1.161,34.943 1.054,34.333 C0.932,33.66 0.901,32.978 0.888,32.458 C0.881,32.247 0.873,31.545 0.873,31.545 L0.873,8.444 C0.873,8.444 0.882,7.753 0.888,7.55 C0.901,7.026 0.932,6.344 1.053,5.678 C1.16,5.064 1.337,4.522 1.597,4.016 C1.862,3.491 2.203,3.022 2.612,2.618 C3.025,2.204 3.496,1.861 4.014,1.595 C4.528,1.334 5.069,1.156 5.667,1.051 C6.341,0.931 7.023,0.9 7.543,0.887 L8.445,0.875 L100.401,0.875 L101.314,0.888 C101.827,0.9 102.509,0.931 103.172,1.05 C103.775,1.156 104.321,1.335 104.843,1.598 C105.357,1.861 105.826,2.204 106.235,2.614 C106.645,3.02 106.987,3.492 107.258,4.018 C107.516,4.529 107.692,5.071 107.794,5.667 C107.91,6.298 107.946,6.946 107.967,7.554 C107.97,7.837 107.97,8.142 107.97,8.444 C107.979,8.819 107.979,9.176 107.979,9.536 L107.979,30.465 C107.979,30.828 107.979,31.183 107.97,31.54 C107.97,31.865 107.97,32.163 107.966,32.47 C107.946,33.059 107.91,33.706 107.795,34.323 C107.692,34.936 107.516,35.478 107.255,35.993 C106.987,36.513 106.643,36.982 106.241,37.379 C105.827,37.797 105.358,38.138 104.841,38.401 C104.322,38.665 103.793,38.84 103.172,38.951 C102.533,39.067 101.87,39.099 101.303,39.114 C101.011,39.121 100.704,39.125 100.406,39.125 L99.322,39.127 L8.445,39.125" id="Fill-4" fill="#000000"></path>
                    <path d="M37.536,15.229 L40.747,15.229 L39.164,10.566 L39.12,10.566 L37.536,15.229 Z M41.167,16.555 L37.116,16.555 L36.143,19.428 L34.427,19.428 L38.264,8.798 L40.047,8.798 L43.885,19.428 L42.14,19.428 L41.167,16.555 Z" id="Fill-5" fill="#FFFFFE"></path>
                    <path d="M50.538,15.553 C50.538,13.984 49.727,12.953 48.49,12.953 C47.274,12.953 46.457,14.006 46.457,15.553 C46.457,17.115 47.274,18.16 48.49,18.16 C49.727,18.16 50.538,17.136 50.538,15.553 Z M52.173,15.553 C52.173,17.961 50.884,19.509 48.938,19.509 C47.835,19.509 46.958,19.015 46.5,18.153 L46.464,18.153 L46.464,21.991 L44.873,21.991 L44.873,11.678 L46.413,11.678 L46.413,12.967 L46.442,12.967 C46.884,12.135 47.827,11.597 48.91,11.597 C50.877,11.597 52.173,13.152 52.173,15.553 Z" id="Fill-6" fill="#FFFFFE"></path>
                    <path d="M59.067,15.553 C59.067,13.984 58.256,12.953 57.02,12.953 C55.804,12.953 54.986,14.006 54.986,15.553 C54.986,17.115 55.804,18.16 57.02,18.16 C58.256,18.16 59.067,17.136 59.067,15.553 Z M60.703,15.553 C60.703,17.961 59.413,19.509 57.468,19.509 C56.364,19.509 55.487,19.015 55.03,18.153 L54.993,18.153 L54.993,21.991 L53.402,21.991 L53.402,11.678 L54.942,11.678 L54.942,12.967 L54.971,12.967 C55.414,12.135 56.357,11.597 57.439,11.597 C59.406,11.597 60.703,13.152 60.703,15.553 Z" id="Fill-7" fill="#FFFFFE"></path>
                    <path d="M66.339,16.466 C66.457,17.52 67.481,18.212 68.88,18.212 C70.221,18.212 71.186,17.52 71.186,16.57 C71.186,15.745 70.604,15.25 69.226,14.912 L67.849,14.58 C65.897,14.109 64.991,13.196 64.991,11.715 C64.991,9.881 66.589,8.621 68.858,8.621 C71.105,8.621 72.644,9.881 72.696,11.715 L71.09,11.715 C70.995,10.654 70.118,10.014 68.836,10.014 C67.554,10.014 66.677,10.662 66.677,11.604 C66.677,12.356 67.238,12.798 68.608,13.137 L69.779,13.424 C71.96,13.94 72.865,14.816 72.865,16.371 C72.865,18.359 71.282,19.605 68.762,19.605 C66.405,19.605 64.813,18.389 64.711,16.466 L66.339,16.466" id="Fill-8" fill="#FFFFFE"></path>
                    <path d="M76.299,9.844 L76.299,11.678 L77.773,11.678 L77.773,12.938 L76.299,12.938 L76.299,17.21 C76.299,17.874 76.594,18.183 77.243,18.183 C77.405,18.183 77.663,18.16 77.766,18.146 L77.766,19.398 C77.589,19.443 77.236,19.472 76.882,19.472 C75.313,19.472 74.702,18.883 74.702,17.38 L74.702,12.938 L73.575,12.938 L73.575,11.678 L74.702,11.678 L74.702,9.844 L76.299,9.844" id="Fill-9" fill="#FFFFFE"></path>
                    <path d="M84.357,15.553 C84.357,13.88 83.59,12.894 82.301,12.894 C81.012,12.894 80.246,13.888 80.246,15.553 C80.246,17.232 81.012,18.212 82.301,18.212 C83.59,18.212 84.357,17.232 84.357,15.553 Z M78.626,15.553 C78.626,13.115 80.062,11.583 82.301,11.583 C84.548,11.583 85.978,13.115 85.978,15.553 C85.978,17.998 84.556,19.524 82.301,19.524 C80.047,19.524 78.626,17.998 78.626,15.553 Z" id="Fill-10" fill="#FFFFFE"></path>
                    <path d="M87.29,11.678 L88.806,11.678 L88.806,12.997 L88.843,12.997 C89.086,12.12 89.794,11.597 90.707,11.597 C90.935,11.597 91.127,11.627 91.253,11.656 L91.253,13.144 C91.127,13.092 90.846,13.048 90.538,13.048 C89.513,13.048 88.879,13.741 88.879,14.831 L88.879,19.428 L87.29,19.428 L87.29,11.678" id="Fill-11" fill="#FFFFFE"></path>
                    <path d="M93.209,14.838 L97.084,14.838 C97.046,13.652 96.288,12.872 95.182,12.872 C94.085,12.872 93.29,13.667 93.209,14.838 Z M98.586,17.151 C98.373,18.558 97.003,19.524 95.249,19.524 C92.995,19.524 91.595,18.013 91.595,15.59 C91.595,13.159 93.003,11.583 95.182,11.583 C97.327,11.583 98.674,13.056 98.674,15.405 L98.674,15.95 L93.202,15.95 L93.202,16.046 C93.202,17.372 94.034,18.242 95.286,18.242 C96.17,18.242 96.863,17.822 97.076,17.151 L98.586,17.151 Z" id="Fill-12" fill="#FFFFFE"></path>
                    <path d="M39.468,25.737 L40.155,25.275 C41.238,26.227 41.633,27.582 41.765,28.76 L40.861,28.9 C40.767,27.714 40.447,26.594 39.468,25.737 Z M36.437,30.811 L36.502,29.992 C36.851,30.106 37.189,30.144 37.453,30.144 C37.745,30.144 37.858,30.115 38,29.917 C38.253,29.55 38.432,28.74 38.432,27.602 C38.432,26.754 38.169,26.509 37.501,26.509 C37.35,26.509 37.18,26.519 36.992,26.528 C36.559,28.148 35.937,29.616 35.222,30.651 L34.44,30.228 C35.128,29.315 35.693,28.034 36.088,26.612 C35.58,26.669 35.043,26.754 34.554,26.867 L34.384,26.038 C34.959,25.935 35.646,25.841 36.286,25.784 C36.408,25.172 36.521,24.532 36.578,23.892 L37.501,23.995 C37.416,24.569 37.312,25.145 37.18,25.709 L37.547,25.709 C38.743,25.709 39.317,26.302 39.317,27.563 C39.317,28.863 39.082,29.842 38.771,30.359 C38.508,30.793 38.187,30.962 37.642,30.962 C37.246,30.962 36.822,30.906 36.437,30.811 Z" id="Fill-13" fill="#FFFFFE"></path>
                    <path d="M44.011,24.692 L44.247,23.863 C45.414,24.043 47.118,24.419 47.947,24.711 L47.721,25.53 C46.977,25.248 45.16,24.833 44.011,24.692 Z M44.887,30.943 L44.699,30.096 C44.934,30.115 45.245,30.124 45.433,30.124 C47.297,30.124 48.003,29.598 48.003,28.815 C48.003,28.194 47.598,27.837 46.694,27.837 C45.904,27.837 45,28.279 44.115,29.099 L43.39,28.778 C43.39,26.98 43.578,26.151 44.19,25.248 L45.028,25.521 C44.454,26.283 44.313,27.008 44.313,27.969 C45.084,27.441 46.045,27.093 46.883,27.093 C48.145,27.093 48.926,27.742 48.926,28.797 C48.926,30.134 47.871,30.953 45.339,30.953 C45.216,30.953 45.038,30.943 44.887,30.943 Z" id="Fill-14" fill="#FFFFFE"></path>
                    <path d="M56.802,23.628 L57.338,23.374 C57.63,23.779 57.837,24.137 58.026,24.561 L57.433,24.815 C57.282,24.41 57.075,24.015 56.802,23.628 Z M55.625,23.723 L56.152,23.468 C56.435,23.854 56.661,24.24 56.821,24.626 L56.228,24.899 C56.086,24.485 55.87,24.09 55.625,23.723 Z M51.652,30.294 C52.687,29.955 53.535,29.361 54.185,28.655 C53.62,28.185 53.045,27.809 52.424,27.47 L52.942,26.82 C53.629,27.178 54.213,27.545 54.73,27.949 C55.202,27.253 55.512,26.5 55.653,25.774 L53.253,25.774 C52.697,26.669 51.991,27.488 51.2,28.138 L50.513,27.545 C51.643,26.612 52.669,25.238 53.13,23.948 L54.034,24.165 C53.931,24.429 53.827,24.701 53.705,24.956 L56.04,24.956 L56.708,25.267 C56.228,27.978 54.655,30.152 52.198,31.028 L51.652,30.294 Z" id="Fill-15" fill="#FFFFFE"></path>
                    <path d="M60.921,30.99 L60.441,30.228 C62.964,29.616 63.708,27.959 63.755,26.076 L59.801,26.076 L59.801,27.969 L58.85,27.969 L58.85,25.275 L61.213,25.275 L61.213,23.892 L62.164,23.892 L62.164,25.275 L63.925,25.275 L64.791,25.521 C64.678,28.194 63.784,30.237 60.921,30.99" id="Fill-16" fill="#FFFFFE"></path>
                    <path d="M66.801,29.983 C69.051,29.663 71.189,28.185 72.234,26.066 L72.855,26.764 C71.687,28.947 69.465,30.529 67.16,30.858 L66.801,29.983 Z M66.623,25.342 L67.15,24.569 C68.006,24.965 68.873,25.492 69.465,25.973 L68.863,26.782 C68.26,26.265 67.461,25.756 66.623,25.342 Z" id="Fill-17" fill="#FFFFFE"></path>
                    <path d="M75.582,29.569 L79.63,29.569 L79.63,25.699 L75.582,25.699 L75.582,29.569 Z M74.649,30.435 L80.571,30.435 L80.571,24.833 L74.649,24.833 L74.649,30.435 Z" id="Fill-18" fill="#FFFFFE"></path>
                    <polygon id="Fill-19" fill="#FFFFFE" points="82.393 27.921 89.049 27.921 89.049 26.961 82.393 26.961"></polygon>
                    <path d="M94.599,24.023 L95.165,23.76 C95.475,24.193 95.673,24.569 95.871,25.04 L95.258,25.313 C95.08,24.833 94.873,24.438 94.599,24.023 Z M93.526,24.429 L94.082,24.165 C94.364,24.569 94.581,25.013 94.751,25.445 L94.138,25.719 C93.998,25.285 93.781,24.815 93.526,24.429 Z M91.314,23.92 L92.246,23.92 L92.246,26.33 C93.574,26.886 94.816,27.517 95.842,28.129 L95.315,28.957 C94.43,28.383 93.367,27.809 92.246,27.31 L92.246,30.943 L91.314,30.943 L91.314,23.92 Z" id="Fill-20" fill="#FFFFFE"></path>
                    <path d="M24.769,20.301 C24.744,17.55 27.021,16.211 27.125,16.148 C25.836,14.268 23.836,14.011 23.134,13.991 C21.455,13.814 19.827,14.996 18.971,14.996 C18.099,14.996 16.782,14.008 15.363,14.038 C13.537,14.066 11.827,15.124 10.89,16.766 C8.956,20.114 10.399,25.035 12.251,27.741 C13.178,29.067 14.261,30.548 15.679,30.495 C17.066,30.438 17.584,29.61 19.258,29.61 C20.917,29.61 21.403,30.495 22.849,30.462 C24.337,30.438 25.275,29.13 26.17,27.792 C27.241,26.273 27.671,24.776 27.688,24.7 C27.653,24.688 24.797,23.599 24.769,20.301" id="Fill-21" fill="#FFFFFE"></path>
                    <path d="M22.037,12.211 C22.783,11.278 23.294,10.009 23.152,8.72 C22.072,8.768 20.722,9.467 19.944,10.38 C19.256,11.184 18.642,12.502 18.8,13.741 C20.013,13.832 21.259,13.129 22.037,12.211" id="Fill-22" fill="#FFFFFE"></path>
                </g>
            </g>
        </g>
    </g>
</svg>